<?xml version="1.0" standalone="no"?>
<!DOCTYPE svg PUBLIC "-//W3C//DTD SVG 20010904//EN"
 "http://www.w3.org/TR/2001/REC-SVG-20010904/DTD/svg10.dtd">
<svg version="1.0" xmlns="http://www.w3.org/2000/svg"
 width="192.000000pt" height="192.000000pt" viewBox="0 0 192.000000 192.000000"
 preserveAspectRatio="xMidYMid meet">

<g transform="translate(0.000000,192.000000) scale(0.100000,-0.100000)"
fill="#000000" stroke="none">
<path d="M750 1895 c-360 -83 -636 -359 -725 -726 -79 -329 33 -681 293 -919
314 -288 784 -330 1149 -104 100 62 245 206 306 305 98 157 147 326 147 499
-1 263 -91 488 -270 670 -247 252 -569 350 -900 275z m327 -217 c28 -12 24
-13 -50 -11 -46 1 -87 -3 -94 -9 -9 -7 -13 -7 -13 0 0 29 104 42 157 20z
m-219 -22 c15 -8 35 -23 45 -34 19 -20 19 -20 -40 -5 -114 31 -212 -11 -263
-112 -23 -46 -25 -61 -24 -175 1 -107 16 -224 41 -309 2 -9 -14 19 -36 61 -48
91 -66 185 -58 302 9 131 75 239 169 273 46 16 134 16 166 -1z m202 -6 c0 -5
-15 -10 -32 -11 -31 0 -31 -1 12 -13 25 -7 54 -17 64 -21 15 -7 17 -5 11 6 -5
8 -5 11 1 6 5 -5 9 -12 9 -15 0 -4 20 -27 43 -50 24 -24 55 -67 69 -95 21 -44
24 -47 19 -19 -7 42 1 41 20 -3 19 -45 18 -119 -1 -139 -9 -8 -15 -34 -16 -63
-1 -71 -7 -42 -18 83 -10 129 -27 169 -94 231 -48 44 -97 64 -143 56 -23 -4
-26 -2 -14 6 12 8 12 11 1 11 -11 0 -11 3 -1 14 10 13 21 17 63 25 4 0 7 -3 7
-9z m121 -35 c50 -25 63 -24 32 2 -13 11 -10 10 10 -1 57 -34 77 -49 77 -59 0
-6 -12 0 -27 14 -28 24 -28 23 1 -8 16 -18 32 -30 36 -28 8 5 66 -78 95 -135
12 -25 -13 -4 -91 77 -112 115 -177 159 -217 148 -16 -5 -18 -4 -8 3 12 9 12
11 0 15 -8 2 -1 3 14 1 16 -2 51 -15 78 -29z m-75 -252 c83 -82 91 -93 114
-163 13 -41 24 -93 23 -115 -2 -45 19 -100 42 -108 17 -7 55 37 55 64 0 20 34
27 45 9 3 -6 -1 -7 -9 -4 -12 5 -16 0 -16 -18 0 -13 -5 -29 -11 -35 -7 -7 -7
-13 -1 -17 6 -3 19 5 30 19 11 14 23 22 25 18 5 -8 -6 -112 -21 -210 -9 -54
-25 -83 -48 -83 -20 0 -17 20 3 36 10 7 15 16 10 20 -10 11 -33 -24 -47 -71
-17 -57 -49 -112 -109 -187 -62 -77 -82 -88 -178 -95 -72 -6 -75 -5 -165 41
-109 55 -151 97 -201 198 -30 58 -37 67 -37 45 0 -35 -27 -48 -46 -22 -21 29
-17 48 15 67 28 15 30 15 34 0 3 -9 5 -4 6 11 0 16 13 49 28 74 23 39 27 60
31 147 3 84 1 111 -17 164 -21 61 -41 193 -27 181 3 -3 15 -44 24 -90 l18 -84
13 50 c19 76 45 128 86 174 36 40 39 41 104 41 36 1 80 7 96 15 17 7 32 14 35
14 3 1 46 -38 96 -86z m-486 -148 c15 -19 31 -142 21 -168 -19 -51 -70 281
-55 353 6 28 9 14 15 -68 4 -57 13 -110 19 -117z m607 48 c-2 -21 -4 -4 -4 37
0 41 2 58 4 38 2 -21 2 -55 0 -75z m192 -65 c13 -21 21 -38 18 -38 -7 0 -127
177 -127 186 0 10 78 -97 109 -148z m-1084 -184 c-14 -32 -25 -53 -25 -46 0
16 41 114 46 109 2 -2 -8 -30 -21 -63z m1095 1 c13 -14 21 -25 18 -25 -2 0
-15 11 -28 25 -13 14 -21 25 -18 25 2 0 15 -11 28 -25z m50 -144 c-8 -21 -9
-21 -6 -3 2 12 0 22 -5 22 -5 0 -9 17 -8 38 l1 37 14 -34 c11 -25 12 -40 4
-60z m-1174 -48 c-10 -26 -18 -8 -9 23 5 21 8 24 11 11 2 -10 1 -25 -2 -34z
m1203 -84 c-6 -24 -19 -58 -30 -75 -26 -43 -95 -104 -117 -104 -18 0 -68 47
-60 56 3 2 11 -2 18 -11 7 -8 22 -15 34 -14 21 0 21 0 1 9 -12 4 -27 16 -35
26 -12 16 -12 17 0 7 23 -21 76 -15 108 12 38 32 72 100 73 146 0 29 2 31 9
13 5 -13 4 -40 -1 -65z m33 -36 c-11 -21 -35 -51 -52 -68 -28 -26 -27 -21 14
35 25 35 46 68 46 74 0 5 3 7 6 4 3 -3 -4 -23 -14 -45z m-1012 -37 c0 -2 -8
-10 -17 -17 -16 -13 -17 -12 -4 4 13 16 21 21 21 13z m60 -61 c17 -20 8 -49
-16 -53 -29 -4 -67 29 -59 51 9 21 58 23 75 2z m-107 -98 c6 4 7 1 2 -7 -6 -9
-4 -12 7 -8 8 4 15 1 15 -7 0 -30 -69 15 -108 71 -43 63 -36 63 22 0 28 -31
56 -53 62 -49z m187 -2 c0 -2 -9 -9 -21 -15 -26 -14 -130 -23 -109 -10 8 5 31
10 50 10 19 0 42 5 50 10 16 10 30 13 30 5z m648 -87 c9 -11 11 -18 4 -18 -14
0 -38 36 -46 70 -6 22 -5 21 10 -5 9 -16 23 -38 32 -47z m-61 25 c-4 -3 3 -17
15 -30 12 -13 16 -23 10 -23 -11 0 -42 38 -42 52 0 5 5 8 12 8 6 0 8 -3 5 -7z"/>
<path d="M920 1253 c0 -34 -1 -35 -18 -20 -27 25 -37 21 -18 -7 14 -23 14 -25
-2 -29 -14 -4 -13 -6 6 -12 12 -4 22 -14 22 -21 0 -9 8 -12 23 -10 12 3 31 5
41 5 11 1 16 4 13 8 -4 3 3 18 15 31 19 21 20 24 5 19 -16 -6 -18 -3 -12 26
l6 32 -20 -22 c-25 -29 -27 -29 -34 7 -9 42 -27 37 -27 -7z"/>
<path d="M1078 1142 c-26 -15 -48 -33 -48 -39 0 -7 3 -13 6 -13 12 0 50 24 74
46 l26 24 37 -31 c21 -17 40 -29 43 -26 6 6 -70 67 -82 66 -5 0 -30 -12 -56
-27z"/>
<path d="M734 1123 c-12 -16 -26 -39 -33 -53 -12 -25 -12 -25 6 -4 10 11 25
31 35 45 l16 24 41 -22 c39 -23 81 -30 81 -15 0 6 -106 52 -121 52 -3 0 -14
-12 -25 -27z"/>
<path d="M1079 1095 c-34 -18 -57 -71 -40 -88 10 -9 12 -9 11 3 -5 32 1 41 35
57 28 13 39 14 60 5 49 -22 18 -68 -50 -75 l-40 -4 46 -1 c35 -2 50 3 64 18
10 11 27 20 39 20 18 0 17 4 -14 34 -42 41 -76 51 -111 31z"/>
<path d="M769 1080 c-25 -15 -76 -85 -56 -77 9 3 17 3 17 -1 0 -5 16 -16 36
-25 43 -21 98 -14 119 15 35 51 -58 122 -116 88z m75 -26 c22 -8 37 -39 30
-58 -12 -30 -124 -15 -124 16 0 35 53 58 94 42z"/>
<path d="M800 1020 c0 -5 5 -10 10 -10 6 0 10 5 10 10 0 6 -4 10 -10 10 -5 0
-10 -4 -10 -10z"/>
<path d="M900 1070 c0 -5 5 -10 11 -10 5 0 7 5 4 10 -3 6 -8 10 -11 10 -2 0
-4 -4 -4 -10z"/>
<path d="M1006 1058 c-12 -39 10 -98 37 -98 5 0 3 8 -6 18 -8 9 -17 37 -19 62
-3 40 -4 42 -12 18z"/>
<path d="M1100 1040 c0 -5 5 -10 11 -10 5 0 7 5 4 10 -3 6 -8 10 -11 10 -2 0
-4 -4 -4 -10z"/>
<path d="M1017 946 c10 -13 20 -22 22 -20 2 2 13 -2 25 -8 29 -15 18 -4 -27
26 l-38 26 18 -24z"/>
<path d="M1319 963 c-3 -21 4 -59 12 -67 5 -6 9 6 9 32 0 23 -4 42 -10 42 -5
0 -10 -3 -11 -7z"/>
<path d="M1287 939 c4 -13 8 -18 11 -10 2 7 -1 18 -6 23 -8 8 -9 4 -5 -13z"/>
<path d="M890 905 c-8 -9 -8 -15 -2 -15 12 0 26 19 19 26 -2 2 -10 -2 -17 -11z"/>
<path d="M1075 879 c-4 -6 -13 -8 -20 -5 -7 2 -25 -9 -41 -25 -15 -16 -25 -29
-22 -29 13 0 98 53 98 61 0 12 -7 11 -15 -2z"/>
<path d="M1160 865 c13 -14 26 -25 28 -25 3 0 -5 11 -18 25 -13 14 -26 25 -28
25 -3 0 5 -11 18 -25z"/>
<path d="M1220 846 c0 -19 5 -38 10 -41 6 -4 10 10 10 34 0 23 -4 41 -10 41
-5 0 -10 -15 -10 -34z"/>
<path d="M1346 865 c-3 -8 -1 -15 4 -15 6 0 10 7 10 15 0 8 -2 15 -4 15 -2 0
-6 -7 -10 -15z"/>
<path d="M813 848 c-29 -32 -53 -83 -52 -110 0 -15 5 -9 14 20 7 23 25 58 40
77 30 40 29 46 -2 13z"/>
<path d="M895 850 c-17 -7 -15 -9 12 -9 17 -1 40 -4 50 -7 16 -5 16 -4 -1 10
-22 18 -32 19 -61 6z"/>
<path d="M1311 844 c0 -11 3 -14 6 -6 3 7 2 16 -1 19 -3 4 -6 -2 -5 -13z"/>
<path d="M1266 819 c-3 -18 -4 -34 -2 -36 2 -3 7 10 11 27 4 17 5 34 2 36 -2
3 -7 -10 -11 -27z"/>
<path d="M1025 800 c-3 -5 -4 -14 0 -19 7 -12 -58 -26 -80 -17 -20 7 -19 23 3
30 9 3 -1 4 -24 2 -113 -10 -158 -75 -118 -172 33 -81 84 -114 176 -114 77 0
144 30 170 75 9 17 20 64 24 106 6 70 5 78 -15 98 -16 16 -33 21 -75 21 -30 0
-58 -4 -61 -10z m105 -45 c0 -20 -42 -46 -102 -61 -43 -12 -61 -11 -119 2 -65
15 -86 29 -56 39 6 2 48 6 92 9 44 2 91 9 105 15 38 15 80 13 80 -4z m-54
-134 c14 5 32 9 41 9 13 0 13 -3 3 -16 -23 -26 -53 -38 -115 -45 l-60 -7 62 2
c59 1 61 0 45 -18 -14 -15 -28 -17 -79 -14 -66 4 -87 13 -63 28 12 8 11 10 -6
10 -11 0 -29 10 -40 22 l-19 21 37 -6 c20 -3 39 -3 42 1 11 10 36 11 36 1 0
-5 5 -9 11 -9 5 0 7 5 4 10 -3 6 -2 10 4 10 5 0 12 -6 14 -12 4 -9 8 -10 14
-2 11 15 37 23 41 13 2 -4 15 -4 28 2z"/>
<path d="M710 774 c0 -16 5 -36 11 -44 7 -11 8 -4 3 25 -8 50 -14 58 -14 19z"/>
<path d="M580 710 c0 -5 5 -10 10 -10 6 0 10 5 10 10 0 6 -4 10 -10 10 -5 0
-10 -4 -10 -10z"/>
<path d="M1231 624 c-6 -15 -9 -29 -7 -32 3 -2 10 8 16 23 14 36 7 43 -9 9z"/>
</g>
</svg>
